<?xml version="1.0" encoding="UTF-8" standalone="no"?>
<!-- Created with Inkscape (http://www.inkscape.org/) -->

<svg
   xmlns:dc="http://purl.org/dc/elements/1.1/"
   xmlns:cc="http://creativecommons.org/ns#"
   xmlns:rdf="http://www.w3.org/1999/02/22-rdf-syntax-ns#"
   xmlns:svg="http://www.w3.org/2000/svg"
   xmlns="http://www.w3.org/2000/svg"
   xmlns:sodipodi="http://sodipodi.sourceforge.net/DTD/sodipodi-0.dtd"
   xmlns:inkscape="http://www.inkscape.org/namespaces/inkscape"
   width="744.09448819"
   height="1052.3622047"
   id="svg2"
   version="1.1"
   inkscape:version="0.48.2 r9819"
   sodipodi:docname="hold_case.svg">
  <defs
     id="defs4" />
  <sodipodi:namedview
     id="base"
     pagecolor="#ffffff"
     bordercolor="#666666"
     borderopacity="1.0"
     inkscape:pageopacity="0.0"
     inkscape:pageshadow="2"
     inkscape:zoom="0.70710678"
     inkscape:cx="226.51923"
     inkscape:cy="818.76904"
     inkscape:document-units="mm"
     inkscape:current-layer="layer1"
     showgrid="true"
     showguides="true"
     inkscape:window-width="1440"
     inkscape:window-height="852"
     inkscape:window-x="0"
     inkscape:window-y="0"
     inkscape:window-maximized="1"
     units="mm">
    <inkscape:grid
       type="xygrid"
       id="grid2987"
       empspacing="1"
       visible="true"
       enabled="true"
       snapvisiblegridlinesonly="false"
       units="mm"
       dotted="true" />
  </sodipodi:namedview>
  <metadata
     id="metadata7">
    <rdf:RDF>
      <cc:Work
         rdf:about="">
        <dc:format>image/svg+xml</dc:format>
        <dc:type
           rdf:resource="http://purl.org/dc/dcmitype/StillImage" />
        <dc:title />
      </cc:Work>
    </rdf:RDF>
  </metadata>
  <g
     inkscape:label="Layer 1"
     inkscape:groupmode="layer"
     id="layer1">
    <path
       style="fill:none;stroke:#0000ff;stroke-width:0.03543307;stroke-miterlimit:4;stroke-opacity:1;stroke-dasharray:none"
       d="M 227 57.8125 L 227 126.65625 L 195.53125 126.65625 L 195.53125 153.53125 L 126 153.53125 L 126 231.375 L 195.53125 231.375 L 195.53125 267.40625 L 195.25 267.40625 L 195.25 267.0625 L 54.53125 267.0625 L 54.53125 423.03125 L 46 423.03125 L 46 582.375 L 54.53125 582.375 L 54.53125 620.40625 L 194.53125 620.40625 L 194.53125 620.75 L 194.53125 653.53125 L 126 653.53125 L 126 731.375 L 194.53125 731.375 L 194.53125 760.125 L 271.28125 760.125 L 271.28125 830.125 L 483.78125 830.125 L 483.78125 760.125 L 547.875 760.125 L 547.875 731.375 L 616.75 731.375 L 616.75 653.53125 L 547.875 653.53125 L 547.875 620.75 L 547.875 620.4375 L 688.3125 620.4375 L 688.3125 592.375 L 696.96875 592.375 L 696.96875 433.03125 L 688.3125 433.03125 L 688.3125 267.03125 L 548.875 267.03125 L 548.875 231.375 L 617.75 231.375 L 617.75 153.53125 L 548.875 153.53125 L 548.875 126.65625 L 528.0625 126.65625 L 528.0625 57.8125 L 227 57.8125 z "
       id="rect3125" />
    <rect
       style="fill:none;stroke:#0000ff;stroke-width:0.03903159;stroke-miterlimit:4;stroke-opacity:1;stroke-dasharray:none"
       id="rect3992"
       width="141.60902"
       height="24.678371"
       x="308.67987"
       y="776.67151" />
    <rect
       style="fill:none;stroke:#0000ff;stroke-width:0.03425366;stroke-miterlimit:4;stroke-opacity:1;stroke-dasharray:none"
       id="rect3994"
       width="228.41568"
       height="56.567524"
       x="259.00052"
       y="350.79916" />
    <path
       sodipodi:type="arc"
       style="fill:none;stroke:#0000ff;stroke-width:0.03543307;stroke-miterlimit:4;stroke-opacity:1;stroke-dasharray:none"
       id="path3996"
       sodipodi:cx="309"
       sodipodi:cy="686.36218"
       sodipodi:rx="24"
       sodipodi:ry="24"
       d="m 333,686.36218 a 24,24 0 1 1 -48,0 24,24 0 1 1 48,0 z"
       transform="matrix(1.1784972,0,0,1.1784972,-26.860533,-126.80877)" />
    <path
       sodipodi:type="arc"
       style="fill:none;stroke:#0000ff;stroke-width:0.03543307;stroke-miterlimit:4;stroke-opacity:1;stroke-dasharray:none"
       id="path4000"
       sodipodi:cx="400"
       sodipodi:cy="682.36218"
       sodipodi:rx="5"
       sodipodi:ry="5"
       d="m 405,682.36218 a 5,5 0 1 1 -10,0 5,5 0 1 1 10,0 z" />
    <path
       d="m 405,682.36218 a 5,5 0 1 1 -10,0 5,5 0 1 1 10,0 z"
       sodipodi:ry="5"
       sodipodi:rx="5"
       sodipodi:cy="682.36218"
       sodipodi:cx="400"
       id="path4002"
       style="fill:none;stroke:#0000ff;stroke-width:0.03543307;stroke-miterlimit:4;stroke-opacity:1;stroke-dasharray:none"
       sodipodi:type="arc"
       transform="translate(20,0)" />
    <path
       transform="translate(38,0)"
       sodipodi:type="arc"
       style="fill:none;stroke:#0000ff;stroke-width:0.03543307;stroke-miterlimit:4;stroke-opacity:1;stroke-dasharray:none"
       id="path4004"
       sodipodi:cx="400"
       sodipodi:cy="682.36218"
       sodipodi:rx="5"
       sodipodi:ry="5"
       d="m 405,682.36218 a 5,5 0 1 1 -10,0 5,5 0 1 1 10,0 z" />
    <path
       d="m 405,682.36218 a 5,5 0 1 1 -10,0 5,5 0 1 1 10,0 z"
       sodipodi:ry="5"
       sodipodi:rx="5"
       sodipodi:cy="682.36218"
       sodipodi:cx="400"
       id="path4008"
       style="fill:none;stroke:#0000ff;stroke-width:0.03543307;stroke-miterlimit:4;stroke-opacity:1;stroke-dasharray:none"
       sodipodi:type="arc"
       transform="translate(10,-12)" />
    <path
       transform="translate(28,-12)"
       sodipodi:type="arc"
       style="fill:none;stroke:#0000ff;stroke-width:0.03543307;stroke-miterlimit:4;stroke-opacity:1;stroke-dasharray:none"
       id="path4010"
       sodipodi:cx="400"
       sodipodi:cy="682.36218"
       sodipodi:rx="5"
       sodipodi:ry="5"
       d="m 405,682.36218 a 5,5 0 1 1 -10,0 5,5 0 1 1 10,0 z" />
    <path
       d="m 405,682.36218 a 5,5 0 1 1 -10,0 5,5 0 1 1 10,0 z"
       sodipodi:ry="5"
       sodipodi:rx="5"
       sodipodi:cy="682.36218"
       sodipodi:cx="400"
       id="path4012"
       style="fill:none;stroke:#0000ff;stroke-width:0.03543307;stroke-miterlimit:4;stroke-opacity:1;stroke-dasharray:none"
       sodipodi:type="arc"
       transform="translate(28,12)" />
    <path
       transform="translate(10,12)"
       sodipodi:type="arc"
       style="fill:none;stroke:#0000ff;stroke-width:0.03543307;stroke-miterlimit:4;stroke-opacity:1;stroke-dasharray:none"
       id="path4014"
       sodipodi:cx="400"
       sodipodi:cy="682.36218"
       sodipodi:rx="5"
       sodipodi:ry="5"
       d="m 405,682.36218 a 5,5 0 1 1 -10,0 5,5 0 1 1 10,0 z" />
  </g>
</svg>
